<?xml version="1.0" standalone="no"?>
<!DOCTYPE svg PUBLIC "-//W3C//DTD SVG 20010904//EN"
 "http://www.w3.org/TR/2001/REC-SVG-20010904/DTD/svg10.dtd">
<svg version="1.0" xmlns="http://www.w3.org/2000/svg"
 width="1128.000000pt" height="1128.000000pt" viewBox="0 0 1128.000000 1128.000000"
 preserveAspectRatio="xMidYMid meet">
<metadata>
Created by potrace 1.11, written by Peter Selinger 2001-2013
</metadata>
<g transform="translate(0.000000,1128.000000) scale(0.100000,-0.100000)"
fill="#000000" stroke="none">
<path d="M5170 11219 c-183 -11 -407 -37 -556 -65 -159 -29 -350 -94 -639
-216 -115 -49 -279 -116 -362 -149 -333 -131 -594 -317 -808 -574 -77 -92
-104 -120 -105 -107 0 24 -20 1 -20 -23 0 -23 -47 -113 -75 -145 -8 -8 -41
-69 -75 -135 -34 -66 -70 -133 -80 -150 -24 -39 -55 -126 -70 -195 -7 -30 -26
-93 -42 -140 -17 -47 -36 -112 -43 -145 -7 -33 -23 -98 -35 -144 -19 -71 -21
-100 -16 -180 15 -234 43 -433 76 -551 10 -36 24 -96 31 -135 6 -38 22 -96 35
-127 13 -32 33 -97 44 -145 11 -49 29 -115 40 -148 44 -134 50 -157 50 -193
-1 -31 -6 -41 -39 -63 -67 -46 -129 -184 -171 -379 -17 -80 -21 -271 -7 -350
2 -14 -2 -45 -9 -70 -15 -51 -19 -236 -5 -272 5 -13 11 -48 14 -79 4 -30 11
-68 17 -85 6 -16 12 -31 12 -34 0 -3 5 -16 11 -30 6 -14 11 -27 11 -30 1 -3 5
-11 9 -17 5 -7 5 -17 2 -23 -3 -5 -2 -10 2 -10 5 0 19 -20 31 -45 29 -59 87
-122 186 -199 103 -81 154 -105 268 -130 16 -4 27 -10 26 -14 0 -4 1 -14 4
-22 16 -40 37 -120 43 -160 9 -54 8 -51 39 -170 14 -52 25 -104 25 -115 0 -60
22 -260 36 -320 12 -54 14 -108 10 -239 -3 -92 -7 -171 -10 -175 -4 -8 -13
-78 -20 -176 -3 -33 -9 -69 -14 -80 -5 -11 -14 -45 -19 -75 -6 -30 -16 -82
-23 -115 -7 -33 -14 -75 -16 -94 -2 -18 -5 -38 -6 -45 -3 -18 -37 -45 -98 -77
-30 -17 -69 -42 -86 -58 -16 -15 -35 -25 -42 -23 -7 2 -22 -5 -34 -16 -12 -11
-32 -23 -44 -26 -12 -4 -25 -16 -29 -28 -3 -11 -28 -43 -55 -72 -27 -28 -69
-71 -93 -96 -80 -83 -147 -218 -234 -475 -36 -105 -62 -169 -70 -167 -7 1 -12
-7 -12 -17 0 -19 -2 -19 -37 -4 -31 13 -67 14 -198 10 -88 -2 -194 -10 -235
-17 -238 -38 -412 -82 -529 -134 -42 -19 -101 -44 -131 -56 -115 -45 -242
-127 -351 -225 -31 -27 -83 -65 -115 -83 -33 -18 -82 -51 -110 -72 -27 -22
-86 -64 -131 -95 -78 -53 -88 -56 -188 -72 l-105 -16 0 -1058 0 -1059 5640 0
c5628 0 5640 0 5640 20 0 20 -8 20 -787 22 l-786 3 -18 80 c-21 94 -72 252
-100 306 -10 21 -19 51 -19 66 0 15 -9 43 -20 61 -12 19 -32 68 -45 109 -16
47 -42 98 -70 135 -25 33 -45 66 -45 74 0 15 -58 84 -71 84 -25 0 -239 180
-251 211 -6 17 -2 19 35 20 23 0 76 1 117 2 l75 2 0 90 c0 83 -2 90 -20 91
-11 1 -62 2 -112 3 l-93 1 0 38 c0 48 28 104 60 119 70 33 167 13 217 -45 17
-20 33 -34 35 -32 14 22 78 157 78 165 0 14 -31 40 -71 60 -162 84 -351 66
-469 -45 -61 -58 -87 -121 -89 -217 l-1 -42 -67 1 c-76 1 -90 6 -150 54 -23
19 -44 34 -47 34 -3 0 -26 13 -52 30 -26 16 -70 37 -98 46 -55 17 -272 128
-333 170 -59 40 -183 94 -215 94 -16 0 -37 -4 -47 -10 -15 -7 -69 16 -255 109
-130 65 -263 128 -297 140 -33 13 -77 34 -97 48 -61 42 -335 169 -416 193 -71
21 -76 25 -87 59 -6 20 -30 70 -54 111 -23 41 -66 129 -95 195 -47 109 -53
129 -60 222 -4 56 -5 112 -3 125 3 18 -10 38 -63 91 -57 57 -72 67 -92 62 -23
-6 -24 -4 -18 22 3 15 13 64 22 108 18 94 51 222 64 250 5 11 18 47 29 80 10
33 30 84 44 112 17 38 23 66 21 100 -2 43 2 52 39 98 23 27 45 52 48 55 4 3
23 32 44 65 21 33 42 62 47 63 4 2 8 9 8 16 0 6 11 27 23 46 21 30 43 70 108
190 7 14 14 34 16 45 2 10 17 39 33 65 16 25 54 96 85 157 31 62 61 113 66
113 5 0 9 9 9 20 0 11 4 20 10 20 5 0 9 3 8 8 -3 10 35 72 44 72 4 0 8 6 8 13
0 16 82 181 92 185 5 2 8 8 8 13 0 12 52 93 63 97 4 2 7 9 7 14 0 6 15 43 34
82 18 39 36 81 40 94 4 12 12 22 17 22 5 0 9 6 9 14 0 8 13 41 29 73 16 32 41
94 56 138 14 44 42 113 61 153 19 40 34 79 34 87 0 8 5 17 10 20 6 4 8 10 6
14 -5 8 26 121 43 156 13 26 57 180 66 225 9 54 44 188 66 255 11 33 22 67 24
75 38 142 47 176 52 184 8 13 32 121 39 176 3 25 12 78 21 118 8 41 13 93 10
115 -3 23 1 71 9 107 8 36 21 106 29 155 8 50 20 114 26 143 l10 52 42 0 c104
0 171 74 233 255 33 96 38 121 37 200 -1 245 -26 739 -42 818 -10 53 -68 256
-91 322 -10 28 -26 75 -35 105 -9 30 -31 84 -49 120 -18 36 -39 83 -46 105
-35 108 -148 313 -247 446 -29 39 -53 74 -53 78 0 8 -21 37 -158 225 -65 89
-175 196 -259 253 -121 80 -189 133 -214 165 -38 48 -228 194 -284 218 -68 29
-218 70 -257 70 -18 0 -58 7 -88 15 -30 8 -82 17 -115 21 -33 3 -108 23 -168
45 -301 111 -563 143 -957 118z"/>
<path d="M8330 8860 c0 -5 5 -10 10 -10 6 0 10 5 10 10 0 6 -4 10 -10 10 -5 0
-10 -4 -10 -10z"/>
<path d="M10878 1662 c-10 -20 -67 -143 -128 -272 -213 -451 -239 -505 -313
-662 l-65 -136 57 -25 c63 -29 159 -67 167 -67 4 0 53 100 169 345 21 44 62
132 93 195 30 63 69 147 87 185 85 183 147 312 160 335 l14 26 -109 57 c-59
31 -109 57 -111 57 -2 0 -12 -17 -21 -38z"/>
<path d="M11271 204 c0 -11 3 -14 6 -6 3 7 2 16 -1 19 -3 4 -6 -2 -5 -13z"/>
</g>
</svg>
